/* XPM */
static char *swish-e[] = {
/* columns rows colors chars-per-pixel */
"20 20 16 1",
"  c #5a3025",
". c #743f33",
"X c #7c4d44",
"o c #855c50",
"O c #957065",
"+ c #997d70",
"@ c #a68c7f",
"# c #af9a8e",
"$ c #b0a396",
"% c #bbb0a6",
"& c #c5c1b8",
"* c #cecec1",
"= c #d7d7c8",
"- c #e2e2d5",
"; c #f0f0e5",
": c #fcfcf7",
/* pixels */
"::::;&&%&%&%&&&&&#%:",
":::&%%%%%%%%%%%%%X$;",
"::&&%;;;;;;;;;;;; #;",
":;%%:;;;;;;-;;;-- @-",
":%%=;-+XXX....    +=",
":%$;;# +@@@@@@@+++$&",
":%$;-Oo===****=**&&&",
":$$--$+@@@@@@@%*&&&&",
":$%&--#@@@@@+@@O&&&&",
":;@@*==**&&*&&@@O&**",
":;*+O%=********%X+==",
":;;&oXoO+OOO@%**#.*-",
":;;--#Oooooo.+&*&.#=",
":;;--======*$%@=* @-",
":&%$$##@@@@@+$%=* +=",
":%&$#@@@@@@@@@**@ &*",
":%%---**&&&*&***XX**",
":$$;-===*****=%X %*&",
":$+@#@@@@@@@@o  %**&",
";O           o+&&*&*"
};
